<?xml version="1.0" encoding="UTF-8"?>
<svg id="b" data-name="Layer 2" xmlns="http://www.w3.org/2000/svg" viewBox="0 0 409.04 389.89">
  <defs>
    <style>
      .d {
        fill: #fff;
      }
    </style>
  </defs>
  <g id="c" data-name="Layer 1">
    <g>
      <path class="d" d="M0,290.63c1.48-5.78,2.22-11.74,4.37-17.37,13.19-34.68,38.3-54.34,74.94-59.22,5.36-.71,10.92-.45,16.34-.04,3.03,.23,4.02-.77,4.49-3.42,.56-3.14,1.2-6.28,2.12-9.33,.88-2.94-.08-3.92-2.98-3.78-6.85,.32-13.53-.21-19.7-3.74-9.37-5.35-14.59-13.41-15.75-24.01-.45-4.08-.29-8.25-.12-12.36,.21-5.07,3.35-8.12,8.39-8.3,3.99-.14,7.98-.11,11.97-.04,2.24,.04,3.29-.72,3.65-3.11,1.26-8.3,5.2-15.11,11.22-21.05,19.61-19.34,39.14-38.77,58.44-58.41,14.03-14.28,30.2-19.73,49.69-13.69,.36,.11,.76,.06,1.78,.13-6.09-14.95-4.76-28.76,5.88-40.98C221.37,4.29,230.09,.4,240.03,.03c18.19-.68,36.36,12.02,37.71,34.81,.68,11.44-3.79,21.32-12.67,28.9-8.67,7.4-18.79,9.9-30.71,8.27,3.29,4.29,7.02,6.86,10.33,9.82,15.07,13.48,30.3,26.79,45.39,40.24,1.94,1.73,3.93,2.37,6.47,2.42,8.1,.14,16.21-.54,24.31,.56,13.66,1.85,23.78,13.91,23.52,28.27-.25,13.57-11.15,25.42-24.51,26.58-3.17,.27-6.36,.41-9.55,.55-3.91,.16-7.68-.3-11.36-3.33,.18,7.61,1.36,14.47,2.66,21.31,.77,4.05,2.07,8,2.69,12.06,.56,3.67,2.44,4.51,5.78,4.03,16.22-2.31,31.85,.07,46.75,6.72,20.12,8.98,34.86,23.6,44.24,43.54,2.62,5.57,1.17,10.45-3.44,12.6-4.43,2.07-9,.27-11.69-5.26-7.23-14.86-17.92-26.25-32.64-33.84-12.69-6.54-26.21-8.34-40.28-7.29-3.64,.27-2.28,2.45-1.78,4.24,4.76,17.03,9.62,34.03,14.31,51.08,1.4,5.11,3.6,10.06,3.72,15.46,.09,3.81-2.42,7-6,8-3.42,.95-7.48-.65-9.21-3.92-.92-1.74-1.5-3.69-2.04-5.6-5.58-19.7-11.11-39.42-16.67-59.12-1.45-5.12-1.57-5.28-6.29-2.69-26.04,14.25-39.74,36.23-38.8,65.96,1.32,41.73,37.09,72.16,77.93,68.05,25.28-2.54,44.15-15.8,56.32-38.26,.82-1.52,1.48-3.13,2.33-4.64,2.71-4.84,6.88-6.45,11.31-4.42,4.26,1.96,5.82,6.57,3.73,11.57-3.46,8.29-8.15,15.87-14.1,22.59-17.97,20.27-40.65,30.39-67.66,30.53-32.2,.17-64.4,.05-96.6,.04-7.56,0-11.67-2.99-11.72-8.46-.05-5.48,4.07-8.58,11.61-8.6,13.31-.03,26.61,0,39.92-.01,1.45,0,2.9,0,4.94,0-1.59-2.64-3.85-3.81-5.62-5.4-12.18-10.93-20.73-24.19-25.52-39.8-.91-2.96-2.19-4-5.26-3.97-15.7,.13-31.4,.01-47.1,.09-4.03,.02-7.75-.38-10.02-4.06-1.58,.4-1.21,1.55-1.4,2.35-9.69,39.61-44.43,67.41-85.22,67.8-25.81,.25-51.63,.02-77.44,.09-4.44,.01-8.05-1.37-10.69-5.01v-7.19c3.03-3.94,7.12-5.07,11.93-4.95,7.51,.18,15.02,.05,22.62,.05-.24-1.63-1.34-2.05-2.11-2.67-10.87-8.7-18.95-19.5-24.92-32.05-3.81-8-5.47-16.56-7.53-25.05v-22.36Zm87.45,82.1c34.07,.09,62.95-23.43,69.88-56.9,1.14-5.5,.93-5.78-4.49-5.78-20.88,0-41.75,0-62.63,0-9.04,0-12.19-4.06-10.13-12.99,4.78-20.71,9.55-41.43,14.41-62.12,.65-2.76,.5-4.31-2.93-4.12-4.38,.24-8.82-.23-13.14,.34-37.16,4.9-63.98,37.79-61.73,75.24,2.14,35.56,32.6,66.6,70.77,66.34Zm193.7-228.22c-.36-3.69,.75-7.28-2.77-10.37-22.49-19.72-44.71-39.76-67.19-59.49-11.91-10.45-27.55-10.05-38.88,1.06-17.56,17.23-34.81,34.77-52.27,52.11-2.59,2.57-1.48,3.1,1.28,3.84,11.29,3.03,22.57,6.12,33.79,9.44,3.23,.96,5.37,.4,7.74-2.02,11.26-11.5,22.7-22.81,34.08-34.19,6.7-6.7,9.11-6.93,16.77-1.4,20.37,14.71,40.71,29.48,61.09,44.18,1.8,1.3,3.88,4.15,5.47,3.34,2.08-1.06,.41-4.35,.9-6.49Zm-82.19,130.66c2.66,0,5.33-.11,7.98,.03,2.87,.15,3.59-.74,3.09-3.74-2.96-17.55-5.68-35.15-8.48-52.73-1.69-10.6-5.39-20.35-12.93-28.2-9.77-10.16-19.8-20.07-29.7-30.1-1.18-1.19-2.69-1.65-4.24-2.08-14.87-4.09-29.73-8.2-44.59-12.29-5.08-1.39-5.86-.97-5.97,4.36-.24,12.57,5.34,21.9,16.22,28.16,15.45,8.88,30.82,17.91,46.35,26.64,4.33,2.43,6.58,5.77,7.63,10.49,3.59,16.22,7.39,32.39,11.1,48.58q2.49,10.87,13.55,10.87Zm43.08-94.22c11.83,0,23.65,.02,35.48-.03,1.48,0,3.65,.65,3.98-1.54,.43-2.83,.67-5.62-2.36-7.8-23.31-16.74-46.54-33.6-69.74-50.49-2.11-1.54-3.48-1.58-5.39,.36-9.12,9.3-18.33,18.51-27.62,27.63-1.99,1.96-1.98,3.2,0,5.15,8.34,8.2,16.57,16.51,24.75,24.86,1.59,1.62,3.36,1.87,5.41,1.86,11.83-.03,23.65-.02,35.48-.02Zm-114.29,112.1c8.77,0,17.54-.02,26.3,.02,2.5,.01,4.23-.48,3.61-3.6-5.05-25.33-19.45-43.11-43.03-53.55-2.12-.94-3.02-.5-3.56,1.86-3.9,17.22-7.87,34.41-11.94,51.59-.72,3.02,.33,3.76,3.11,3.73,8.5-.09,17-.03,25.51-.03Zm141.96-95.53c-18.8,0-36.43,0-54.06,0-1.91,0-2.19,.97-1.61,2.62,.91,2.63,1.85,5.27,2.5,7.97,2.25,9.3,3.27,18.82,4.88,28.23,.18,1.05,.1,2.39,1.07,2.87,1.35,.66,2.1-.77,2.93-1.52,5.44-4.88,10.83-9.81,16.24-14.72,9.04-8.2,18.07-16.4,28.05-25.46ZM241.65,16.93c-10.76-.04-19.4,8.4-19.49,19.03-.09,10.94,8.43,19.66,19.25,19.71,10.7,.04,19.39-8.46,19.49-19.07,.1-10.96-8.38-19.63-19.25-19.67Zm-73.38,248.08c-3.29-14.34-6.59-28.68-9.86-43.03-.46-2.01-1.87-3.06-3.55-4.03-10.49-6.02-21-12-31.37-18.21-2.91-1.75-3.6-.6-4.13,1.98-.83,4.03-1.54,8.11-2.75,12.03-1.06,3.42-.08,4.98,3.22,6.22,13.98,5.25,25.58,13.9,35.21,25.28,5.15,6.08,9.1,12.93,13.22,19.76Zm120.4-47.8c-.57-2.26-1.44-5.2-2.03-8.19-.55-2.8-1.7-2.54-3.4-.99-2.75,2.51-5.53,4.98-8.29,7.48-15.57,14.1-31.14,28.19-46.69,42.32-1.24,1.13-2.99,2.11-2.7,4.15,.75,5.12,1.39,10.28,2.54,15.32,.69,3.03,3.92,4.25,6.38,4.77,1.68,.35,1.67-2.87,2.13-4.52,2.71-9.71,7.09-18.59,12.91-26.79,9.38-13.22,21.52-23.04,36.33-29.6,1.44-.64,3.13-1.08,2.82-3.95Zm9.41-49.29c3.38-4.17,7.18-4.73,11.3-4.52,2.65,.14,5.33,.17,7.96-.08,6.06-.56,10.52-5.5,10.31-11.17-.22-5.92-4.68-10.4-10.83-10.59-5.18-.16-10.36,.02-15.54-.08-2.44-.04-3.26,1.02-3.23,3.36,.08,7.3,.03,14.6,.03,23.06Zm-86.42,139.18c5.97,0,11.94-.08,17.91,.03,2.93,.05,3.21-1.01,1.86-3.27-3.67-6.13-8.9-10.1-15.97-11.43-7.37-1.38-14.82-.46-22.23-.72-2.31-.08-3,1.09-2.95,3.19,.08,2.92,.12,5.84-.02,8.75-.12,2.59,.92,3.54,3.49,3.49,5.97-.12,11.94-.04,17.91-.03Zm-114.93-126.41c-2.79-4.56-5.03-8.85-7.01-13.3-1.5-3.37-4.98-1.94-7.44-1.55-2.54,.41-1.57,3.03-1.26,4.68,1.19,6.24,7.33,10.32,15.71,10.17Z"/>
      <path class="d" d="M409.04,302.02c-.07,4.73-3.73,8.36-8.35,8.29-4.61-.07-8.14-3.8-8.09-8.55,.05-4.78,3.59-8.26,8.35-8.2,4.73,.06,8.16,3.65,8.09,8.46Z"/>
      <path class="d" d="M197,381.21c.05,4.47-3.98,8.54-8.39,8.46-4.29-.07-8.14-3.93-8.24-8.24-.09-4.43,3.93-8.44,8.42-8.41,4.37,.04,8.15,3.81,8.21,8.18Z"/>
    </g>
  </g>
</svg>