<?xml version="1.0" encoding="UTF-8"?>
<svg id="b" data-name="Layer 2" xmlns="http://www.w3.org/2000/svg" viewBox="0 0 372.07 372">
  <defs>
    <style>
      .d {
        fill: #fff;
      }
    </style>
  </defs>
  <g id="c" data-name="Layer 1">
    <g>
      <path class="d" d="M103.99,264.15c-32.93,0-65.87,0-98.8,0-5.01,0-4.75-.04-5.1-4.88-.44-6.17,1.14-11.68,3.65-17.26,24.89-55.25,49.65-110.57,74.36-165.91,1.36-3.05,3.05-4.19,6.46-4.18,30.44,.14,60.88,.04,91.31,.14,3.01,0,5.13-.48,5.55-3.86,.06-.48,.26-1,.55-1.38,4.25-5.49,4.34-11.52,4.07-18.31-.74-18.65,15.65-32.77,34.12-30.12,2.99,.43,4.12-.46,5.46-2.83,8.92-15.78,28.61-20.28,43.6-9.99,1.89,1.3,3.14,1.55,5.23,.24,17.2-10.75,38.3-6.21,49.67,10.69,1.5,2.22,2.85,2.82,5.45,2.27,21.67-4.62,40.53,14.54,35.66,36.2-.51,2.25-.23,3.89,1.14,5.83,11.16,15.86,5.41,36.81-12.35,44.95-2.26,1.04-2.5,1.91-1.76,4.17,5.87,17.83-3.7,35.04-22,39.5-2.68,.65-2.86,1.47-1.84,3.76,13.92,30.93,27.68,61.93,41.72,92.81,2.44,5.37,1.63,10.73,1.68,16.14,.02,2.48-2.15,1.99-3.66,2-13.22,.04-26.45,.03-39.67,.03-7.39,0-7.32-.02-5.71,7.13,2.6,11.59,1.69,22.85-4.08,33.38-1.42,2.59-1.12,4.05,.9,6.05,15.95,15.8,31.74,31.77,47.73,47.53,2.57,2.54,2.61,4.03,0,6.51-5.92,5.6-5.8,5.73-11.47,.06-15.08-15.08-30.16-30.17-45.27-45.24-.9-.9-1.8-2.63-3.35-1.44-2.05,1.57-4.95,2.19-6.08,4.7-.49,1.09,.95,2.19,1.67,3.18,7.91,10.91,15.76,21.86,23.81,32.65,1.98,2.66,2.17,4.13-.83,6.17-7.04,4.77-6.96,4.94-11.9-1.84-7.72-10.58-15.49-21.13-23.04-31.83-2-2.83-3.93-3.99-7.45-2.97-3.2,.93-6.61,1.31-9.96,1.53-2.86,.18-3.45,1.52-3.42,4.08,.12,11.23-.03,22.46,.16,33.68,.06,3.37-.93,4.64-4.42,4.52-9.45-.31-7.98,1.11-8.16-8.19-.19-9.97-.43-19.95-.46-29.92,0-2.77-.89-4.16-3.7-4.43-2.23-.21-4.56-.36-6.61-1.15-3.61-1.39-5.47-.28-7.44,2.96-7.21,11.81-14.85,23.37-22.17,35.12-1.59,2.55-2.84,2.69-5.27,1.09-7.55-4.96-7.59-4.85-2.69-12.54,6.31-9.88,12.52-19.83,18.91-29.66,1.4-2.16,1.34-3.19-1.03-4.57-6.97-4.09-6.9-4.2-12.51,1.41-15.08,15.08-30.21,30.12-45.2,45.3-2.35,2.38-3.78,2.66-6.23,.08-5.78-6.1-5.91-5.97,.12-11.99,15.08-15.08,30.12-30.22,45.3-45.2,2.36-2.33,2.75-3.98,.96-6.95-6.71-11.12-7.65-22.98-3.5-35.25,1.33-3.94,1.37-3.94-2.93-3.94-33.06,0-66.12,0-99.17,0ZM189.05,84.5c-30.06,0-60.12,0-90.18,0q-4.9,0-2.93,4.66c.29,.69,.61,1.37,.91,2.05,11.89,27.46,23.79,54.91,35.68,82.37,10.7,24.71,21.46,49.4,32.06,74.16,1.27,2.97,2.88,4.03,6.13,3.99,13.59-.19,27.19-.07,40.78-.09,1.59,0,3.27,.28,4.44-1.31,6.04-8.24,12.96-16.08,11.78-27.42-.25-2.44,.84-3.13,3.13-2.4,3.92,1.25,7.87,2.46,11.5,4.43,1.62,.88,2.55,.76,3.63-.92,9.2-14.38,22.87-22.57,38.7-27.74,2.33-.76,3.69-.48,3.43,2.31-.71,7.4,2.37,13.62,6.07,19.64,6.46,10.52,13.91,20.41,19.82,31.27,1.12,2.06,2.76,2.16,4.71,2.16,11.97-.03,23.95-.1,35.92,.04,3.27,.04,3.79-.56,2.39-3.67-23.9-53.09-47.74-106.21-71.42-159.4-1.49-3.36-3.32-4.21-6.74-4.2-29.93,.12-59.87,.07-89.8,.07Zm108.03-12.04c-2.64,.53-3.78-.85-3.51-3.76,.1-1.11,.17-2.27-.01-3.36-.68-4.1,1.09-5.53,5.13-6.17,10.64-1.69,19.2-12.22,18.71-23.01-.44-9.89-5.07-17.42-14.39-21.41-9.22-3.95-18.9-1.75-26.14,5.42-1.93,1.92-3.23,5.59-5.69,5.53-2.76-.07-3.67-3.95-5.43-6.14-7.74-9.64-22.66-8.71-28.92,1.81-1.34,2.26-1.39,3.96,.67,5.9,4.59,4.33,7.23,9.78,8.39,15.96,.87,4.64,.33,5.3-4.26,5.34-1.37,.01-2.76-.13-4.11,.03-2.82,.34-3.9-.99-4.46-3.64-1.83-8.61-9.02-14.46-17.25-14.28-8.74,.18-15.65,6.47-17.17,15.37-.54,3.15,.39,3.72,3.37,3,8.28-1.99,8.11-1.89,8.35,6.54,.11,3.72-1.06,5.23-4.78,5.86-4.62,.78-8.04,3.78-10.46,7.84-.99,1.66-1.16,2.85,1.37,2.72,.87-.04,1.75,0,2.62,0,29.44,0,58.89,.07,88.33-.09,3.61-.02,5.5,1.18,6.67,4.44,1.05,2.93,2.46,5.72,3.74,8.57,7.46,16.61,14.92,33.22,22.4,49.82,.65,1.43,1,3.05,3.21,3.09,6.75,.11,14.38-5.2,16.8-11.84,2.51-6.9,.21-14.97-5.57-19.53q-4.99-3.94-2.85-9.91c.17-.47,.41-.92,.51-1.41,.68-3.28,2.37-3.53,5.12-2.07,2.21,1.17,4.06,3.11,7.16,2.46,7.03-1.47,11.74-5.43,13.84-12.19,2.17-6.99,.15-13.07-5.09-18.02-4.44-4.2-4.52-4.13-2.04-9.34,5.16-10.84-.81-22.57-12.66-24.85-7.16-1.38-8.54-.27-8.67,6.98,0,.37,0,.75-.02,1.12-.64,16.59-16.33,32.61-32.91,33.24Zm-4.14,238.42c.83,.55,1.39,.19,1.92-.08,12.4-6.42,17.14-17.87,16.4-30.7-.61-10.51-5.48-19.55-10.7-28.41-7.27-12.34-16.53-23.46-22.48-36.6-1.04-2.3-2.31-1.21-3.58-.5-6.05,3.38-11.31,7.74-15.66,13.14-2.82,3.51-5.27,7.11-1.84,11.68,.56,.75,.7,1.86,.9,2.83,1.81,8.76,.79,9.91-7.94,9.97-3.16,.02-4.63-.77-4.34-4.18,.33-3.8-1.51-6.69-4.51-8.91-1.31-.97-2.38-1.29-3.21,.58-3.48,7.82-9.03,14.3-13.77,21.31-5.36,7.93-9.13,16.31-7.19,26.26,1.99,10.24,8.13,17.22,17.23,22.63,.11-1.06,.28-1.55,.19-1.99-2.04-9.57,.36-17.96,6.48-25.48,6.92-8.51,13.77-17.07,20.53-25.71,1.82-2.34,2.96-2.77,5-.14,7.03,9.05,14.29,17.93,21.43,26.91,4.87,6.13,7,13.14,6.24,20.95-.21,2.19-.73,4.35-1.09,6.42Zm-162.37-59.43c-22.27-25.23-37.31-53.31-46.34-84.86-8.89,31.71-24.23,59.73-46.15,84.86h92.5ZM77.92,108.17c-.91,1.96-1.44,3.06-1.93,4.17-20.02,44.68-40.05,89.35-60.03,134.05-.69,1.53-2.61,3.5-1.51,4.67,1.38,1.46,3.99,.58,6.05,.42,1.2-.09,1.86-1.17,2.58-2.02,2.16-2.58,4.26-5.21,6.46-7.75,32.81-38.04,48.75-82.24,48.39-133.53Zm13.24,2.15c-.24,12.89,.23,25.58,2.58,38.11,6.1,32.49,19.48,61.63,40.33,87.31,3.93,4.84,7.98,9.57,11.94,14.39,1.42,1.72,3.43,2.06,5.05,1.23,1.68-.85-.09-2.35-.34-3.55-.12-.6-.46-1.15-.71-1.73-14.62-33.73-29.23-67.46-43.86-101.19-5-11.53-10-23.05-15-34.57Zm172.85,207.15c6.83-.18,12.57-2.49,15.72-8.91,3.12-6.37,1.9-12.33-2.49-17.77-3.69-4.56-7.44-9.07-10.96-13.75-1.72-2.3-2.8-2.62-4.66-.1-3.49,4.7-7.25,9.21-10.96,13.75-4.42,5.41-5.74,11.34-2.64,17.74,3.19,6.6,9.07,8.87,16,9.04Z"/>
      <path class="d" d="M42.15,84.49C17.57,84.45-1.83,63.39,.14,38.97c.16-2.02,.86-2.9,2.91-2.91,4.35-.02,8.34,.02,12.26,3.01,6.34,4.83,15.82,3.38,21.53-2.41,5.61-5.69,7.02-15.01,2.32-21.25-2.95-3.91-3.15-7.86-3.1-12.24,.02-2.28,1-2.93,3.16-3.06,22.6-1.35,42.13,14.48,45.1,36.63,2.95,22.06-11.88,42.57-34,47.09-2.72,.56-5.44,.63-8.18,.65Zm12.57-60.02c-.18,18.81-16.83,32.81-35.52,29.78-1.04-.17-2.28-1.04-3.07,.17-.62,.94,.28,1.9,.77,2.72,5.93,9.75,14.78,15,26.04,14.65,19.37-.6,31.58-17.8,28.35-34.88-1.7-8.99-6.7-15.66-14.54-20.25-.71-.42-1.56-1.13-2.4-.52-.85,.61-.35,1.57-.25,2.42,.24,1.97,.41,3.95,.62,5.92Z"/>
      <path class="d" d="M258.67,95.95c4.86,0,9.73,.08,14.59-.03,2.29-.06,3.63,.69,4.6,2.87,6.86,15.5,13.81,30.97,20.81,46.41,.96,2.11,.5,3.18-1.55,4.02-11.08,4.54-7.91,5.71-12.73-4.61-5.05-10.85-9.88-21.8-14.66-32.77-1.11-2.54-2.6-3.51-5.39-3.44-6.98,.18-13.97-.03-20.95,.09-2.7,.05-3.79-.83-3.74-3.64,.21-10.59-1.16-8.7,8.54-8.89,3.49-.07,6.98-.01,10.48,0Z"/>
      <path class="d" d="M176.71,215.52c.1,1.6-.7,1.99-1.51,2.35-2.51,1.11-5.02,2.2-7.54,3.29-1.21,.52-2.19,.35-2.78-.95-.1-.23-.22-.45-.34-.67-4.67-8.68-4.02-10.22,5.34-13.3,1.8-.59,2.82-.27,3.53,1.46,1.13,2.77,2.32,5.5,3.3,7.82Z"/>
      <path class="d" d="M161.15,183.9c2.42-.06,2.8,1.68,3.13,2.97,.73,2.84,4.47,5.7,2.05,8.31-2.08,2.24-5.84,3.13-9.02,4.07-2.11,.62-2.51-1.81-2.88-3.16-.73-2.69-4.34-5.43-1.9-7.95,2.17-2.24,5.88-2.97,8.61-4.23Z"/>
      <path class="d" d="M198.23,95.95c6.06,0,6.08,0,6.05,6.45-.03,6.76,.48,6.01-6.82,6.05-5.69,.03-5.69,0-5.68-6.81q0-5.68,6.45-5.68Z"/>
      <path class="d" d="M228.24,102.47q0,5.98-6.52,5.98-5.98,0-5.98-6.52,0-5.99,6.9-5.98,5.61,0,5.61,6.52Z"/>
      <path class="d" d="M185.96,236.6c.08,1.17-.49,1.65-1.19,1.97-2.73,1.22-5.47,2.41-8.21,3.6-.11,.05-.26,.13-.35,.1-3.9-1.26-3.33-5.36-5.03-8.02-1.01-1.58,.16-2.5,1.57-3.1,1.15-.48,2.26-1.08,3.44-1.45,1.95-.6,4.13-3.06,5.76-1.52,2.31,2.16,2.93,5.66,4,8.42Z"/>
    </g>
  </g>
</svg>