<?xml version="1.0" encoding="UTF-8"?>
<svg id="b" data-name="Layer 2" xmlns="http://www.w3.org/2000/svg" viewBox="0 0 370.88 365.49">
  <defs>
    <style>
      .d {
        fill: #fff;
      }
    </style>
  </defs>
  <g id="c" data-name="Layer 1">
    <g>
      <path class="d" d="M71.74,174.95c1.74-16.26-1.75-30.58-11.13-43.25-3.04-4.11-4.82-8.41-4.26-13.53,.26-2.39-.61-4.02-2.73-5.21-1.73-.96-3.41-2.11-4.91-3.4-2.06-1.76-2.58-4.03-.94-6.33,1.57-2.2,3.84-2.87,6.26-1.53,3.38,1.87,6.53,4.15,9.95,5.93,9.12,4.75,17.94,1.94,22.77-7.17,5.07-9.56,6.77-20,7.79-30.6,.41-4.23,2.32-6.52,5.36-6.23,3.05,.29,4.55,2.97,4.32,7.05-.63,11.46-3.09,22.46-7.97,32.86-5.39,11.5-15.06,17.06-27.73,15.94-2.46-.22-3.04,.7-2.1,2.75,.62,1.35,1.48,2.59,2.32,3.82,8.1,11.91,13.62,24.67,12.86,39.44-.17,3.25,1.29,3.79,4.1,3.3,6.14-1.06,12.31-1.91,18.46-2.88,3.88-.61,7.41-2.01,10.59-4.41,2.18-1.64,4.53-3.09,6.93-4.4,2.76-1.51,5.19-.77,6.69,1.94,1.46,2.63,.35,4.69-1.88,6.47-8.54,6.8-18.16,10.65-29.09,11.45-4.46,.33-8.86,1.37-13.29,2.05-4.1,.63-2.34,3.83-2.39,5.95-.06,2.71,2.05,1.76,3.57,1.48,8.33-1.55,16.66-3.11,24.99-4.65,4.3-.79,8.02-2.67,11.06-5.83,1.74-1.81,3.55-3.53,5.78-4.7,1.33-.69,1.96-1.82,2.47-3.14C160.07,90.2,216.06,39.55,295.09,13.63,316.12,6.73,337.8,2.69,359.75,.08c5.62-.67,10.39,2.91,11.05,8.23,.65,5.18-2.96,9.6-8.93,10.51-10.62,1.62-21.08,3.93-31.38,6.91-48.32,13.99-90.68,38.02-125.27,74.93-17.27,18.43-31.15,39.23-41.97,62.06-.64,1.35-1.25,2.72-1.95,4.04-1.46,2.75-3.62,4.31-6.72,2.86-3.06-1.43-3.48-4.03-2.17-6.95,3.42-7.63,7.25-15.06,11.43-22.3,24.78-42.93,59.46-75.61,102.88-99.22,21.36-11.61,43.8-20.45,67.34-26.54,.59-.15,1.17-.39,1.7-.75-10.95,1.76-21.7,4.35-32.32,7.5-36.75,10.89-70.01,28.25-98.72,53.83-28.21,25.14-49.59,55.17-63.64,90.33-.99,2.47-.87,3.56,1.89,4.67,11.22,4.52,15.28,17.38,8.91,27.68-4.95,8-12.05,13.23-21.08,15.73-15.98,4.42-32.09,8.51-48.5,10.82-14.16,1.99-25.85-3.5-33.82-15.44-8.38-12.55-15.86-25.69-21.81-39.6-4.24-9.92-4.71-20.35-1.13-30.34,4.34-12.11,4.2-24.46,4.15-36.93,0-1.78-.69-3.03-2.04-4.16-8.18-6.86-12.77-15.8-14.99-26.1-.82-3.8,.44-6.48,3.37-7.19,2.85-.69,5.34,1.22,6.2,5.02,1.6,7.07,4.38,13.52,9.56,18.72,.97,.97,1.98,2.77,3.69,1.47,1.39-1.06,.99-2.74,.35-4.14-1.54-3.38-2.34-6.77-1.24-10.5,2.6-8.81,11.79-12.81,20-8.71,1.15,.57,2.35,2.61,3.83,.79,1.64-2.03,3.31-4.32,3.18-7-.07-1.56-2.07-.87-3.19-.88-12.97-.07-25.95-.05-38.92-.08-7.33-.01-8.8-1.95-8.26-9.31,.83-11.39,3.9-21.9,11.61-30.54C35.12,5.76,50.69,.88,68.52,4.56c17.5,3.61,28.3,14.92,33.24,31.92,.94,3.22,1.59,6.55,2.05,9.87,.3,2.13,1.06,3.13,3.28,3.09,4.49-.08,8.98,0,13.47-.05,2.72-.03,4.67-1.2,4.67-4.17,0-2.89-1.86-4.27-4.56-4.42-2.86-.15-5.74-.05-8.6-.09-3.08-.05-5.09-1.62-5.27-4.67-.18-2.95,1.75-4.58,4.56-4.96,4.73-.65,9.5-.64,14.1,.71,6.55,1.91,10.81,8.81,9.8,15.4-1.09,7.06-6.71,12.15-13.96,12.2-14.47,.11-28.94,.15-43.41-.05-3.77-.05-5.86,.74-6.9,4.75-1.39,5.38-4.6,9.92-8.55,13.86-3.65,3.62-5.9,3.59-9.44-.07-.52-.54-1.03-1.09-1.59-1.58-1.63-1.43-3.47-2.18-5.45-.87-2.1,1.39-2.22,3.44-1.39,5.65,.57,1.51,1.38,2.99,1.64,4.55,.77,4.61-.47,8.64-3.96,11.89-1.27,1.18-2.75,2.23-2.58,4.3,1.28,15.64-1.98,30.7-5.49,45.79-1.54,6.61-.81,13.25,2.24,19.68,5.94,12.54,12.58,24.68,20.25,36.22,6.24,9.4,15.43,12.73,26.36,10.87,15.12-2.56,30.01-6.22,44.84-10.13,6.19-1.63,11.01-5.19,14.76-10.24,3.38-4.56,3.01-10.01-.73-13.15-3.75-3.14-8.85-2.78-12.75,1.3-5.31,5.57-11.73,8.63-19.26,9.86-8.24,1.34-16.4,3.15-24.65,4.42-9.44,1.45-17.21-3.33-20.64-12.3-3.38-8.85-6.67-17.74-10.1-26.57-2.06-5.3-4.34-10.32-10.8-11.86-2.34-.56-3.42-2.97-2.71-5.47,.74-2.6,2.68-3.91,5.42-3.51,5.8,.85,10.19,3.9,13.16,8.9,4.49,7.56,6.99,15.97,10.14,24.1,.61,1.58,1.21,3.16,2.02,5.24Zm-14.34-125.62s0,.04,0,.06c10.85,0,21.7-.1,32.54,.06,3.56,.05,4.26-1.43,3.76-4.55-3.42-21.38-19.67-34.09-41.2-31.2-15.95,2.15-29.36,15.99-30.93,32.02-.28,2.81,.37,3.71,3.29,3.67,10.85-.15,21.69-.06,32.54-.06Z"/>
      <path class="d" d="M33.12,260.36c.02-2.02-1.27-2.8-2.04-3.85-4.92-6.73-7.79-14.05-7.63-22.58,.22-11.97,.07-23.95,.08-35.92,0-1.12-.05-2.25,.07-3.36,.33-2.99,1.96-5.05,5.02-5,3.05,.05,4.62,2.16,4.89,5.15,.1,1.11,.05,2.24,.05,3.37,0,9.6,.02,19.21-.05,28.81-.02,2.44,.44,3.25,2.91,1.83,4-2.29,8.12-4.39,12.23-6.47,3.27-1.65,6.1-.96,7.37,1.78,1.46,3.15-.03,5.31-2.73,6.78-5.36,2.93-10.74,5.84-16.19,8.59-2.43,1.23-2.86,2.65-1.72,5.07,4.55,9.64,11.93,15.51,22.69,15.68,20.45,.33,40.91,.1,61.37,.21,2.85,.02,3.63-1.12,3.59-3.79-.12-7.86-.03-15.72-.04-23.57,0-1.47,.22-2.98-1.57-3.84-2.81-1.35-4.34-3.5-2.88-6.65,1.46-3.16,4.27-3.07,7.08-2.37,12.46,3.11,24.9,6.24,37.34,9.43,4.17,1.07,7.85,3.02,11.05,6,7.57,7.03,8.42,15.93,7.63,25.47-.84,10.05-1.37,20.13-2.03,30.2-.47,7.21-.78,14.43-1.43,21.63-.47,5.19,.97,9.27,5.31,12.33,2.75,1.94,5.33,4.12,7.93,6.25,5.78,4.75,7.3,12.67,3.67,18.86-3.7,6.31-11.57,8.83-18.62,5.65-5.79-2.61-11.42-5.61-17.11-8.44q-4.55-2.26-4.56,3c0,2.74,.06,5.49-.05,8.23-.15,3.78-1.92,5.87-4.86,5.95-3.1,.08-5.08-2.09-5.1-6.04-.06-15.72-.04-31.43-.03-47.15,0-11.97,.02-23.95,.03-35.92q0-5.19-5.1-5.2c-43.41-.04-86.82-.08-130.22-.13-1.62,0-3.26,.05-4.85-.2-2.76-.43-4.73-2.01-4.62-4.96,.11-3.08,2.09-4.77,5.15-4.8,7.98-.08,15.97-.03,23.95-.04,1.33,0,2.66,0,4.02,0Zm121.75,36.84h-.04c0,9.85,.03,19.7-.02,29.55-.02,4.51,1.66,8.15,5.62,10.26,6.48,3.47,13.11,6.67,19.71,9.89,2.56,1.25,4.93,.88,6.48-1.72,1.51-2.53,.4-4.53-1.64-6.18-2.82-2.27-5.65-4.52-8.5-6.74-4.76-3.71-7.87-8.45-8.07-14.56-.16-4.84,.27-9.7,.55-14.54,.93-16.41,2.04-32.81,2.8-49.23,.33-7.05-3.48-12.39-10.23-14.36-8.49-2.47-17.13-4.38-25.69-6.61-2.25-.59-2.92,.25-2.95,2.36-.09,7.23-.19,14.45-.42,21.68-.09,2.63,.98,3.55,3.52,3.47,3.74-.12,7.48-.06,11.22-.02,5.87,.07,7.63,1.81,7.64,7.57,.02,9.72,0,19.45,0,29.17Z"/>
      <path class="d" d="M288.08,246.14c3.29-2.58,5.84-4.53,8.33-6.55,2.87-2.33,5.64-2.28,8.44,.1,1.9,1.61,3.84,3.19,5.77,4.76,.56,.46,1.1,1.23,1.91,.91,.89-.35,.6-1.29,.51-1.98-.7-5.33-2.42-10.15-6.8-13.7-5.18-4.21-5.16-4.87-1.85-10.91,7.59-13.87,10.04-28.32,4.44-43.54-.68-1.86-1.62-3.64-2.51-5.42-1.57-3.14-3.89-4.9-7.65-4.98-4.31-.09-6.36-2.28-6.42-6.62-.41-27.57,7.92-52.04,26.46-72.68,9.85-10.97,19.51-22.04,26.38-35.23,3.07-5.89,5.67-11.94,6.85-18.51,.56-3.12,2.09-5.11,5.46-4.88,2.93,.2,4.57,2.67,4.1,6.38-.85,6.63-3.36,12.76-6.26,18.71-7.42,15.19-18.17,27.93-29.42,40.36-14.88,16.44-22.22,36.07-23.58,58.09-.2,3.22,.68,5.02,3.91,6.08,3.53,1.15,6.09,3.8,7.95,7.05,10.44,18.17,9.8,36.65,1.22,55.19-1.37,2.95-1.14,4.69,.9,7.18,7.38,8.99,8.08,19.28,4.71,30-1.41,4.5-5,5.4-8.77,2.46-3.14-2.46-6.24-4.98-9.24-7.6-1.69-1.48-2.98-1.66-4.8-.05-3.08,2.72-6.36,5.22-9.66,7.68-3.8,2.83-7.22,1.85-8.79-2.62-3.43-9.73-2.02-19.02,3.53-27.51,2.03-3.1,1.84-5.22,.06-8.31-9.52-16.55-8.7-33.58-1.65-50.72,1.32-3.22,3.95-4.42,6.54-3.26,3.13,1.41,3.59,3.97,2.52,6.88-1.89,5.16-3.53,10.33-4.23,15.84-1.42,11.21,1.38,21.24,7.78,30.38,3.64,5.2,3.61,5.73-.28,10.71-3.49,4.48-6.15,9.32-5.85,16.33Z"/>
      <path class="d" d="M291.52,355.46c23.31,0,46.62,0,69.94,0,.75,0,1.5-.01,2.24,0,3.89,.12,6.31,1.95,6.43,4.84,.13,3.02-2.41,5.17-6.46,5.17-19.32,.02-38.65,0-57.97-.03-27.67-.04-55.35-.09-83.02-.15-1.49,0-3-.04-4.48-.22-2.97-.35-5.03-1.89-4.88-5.06,.14-3.13,2.22-4.56,5.27-4.63,1.12-.02,2.24-.02,3.37-.02,23.19,0,46.37,0,69.56,0v.08Z"/>
      <path class="d" d="M242.32,317.7c-14.84,0-29.68,0-44.52,0-1.25,0-2.51,.06-3.73-.11-2.57-.36-4.03-2.02-4.21-4.52-.17-2.4,1.18-4.13,3.46-4.71,1.78-.46,3.7-.57,5.55-.57,28.93-.03,57.86-.03,86.79,0,1.86,0,3.77,.12,5.55,.56,2.29,.57,3.61,2.3,3.52,4.69-.1,2.56-1.63,4.14-4.16,4.54-1.22,.2-2.49,.12-3.73,.12-14.84,0-29.68,0-44.52,0Z"/>
      <path class="d" d="M334.37,279.11c9.46,0,18.92-.02,28.38,.02,1.36,0,2.77,.06,4.05,.43,2.29,.66,3.53,2.38,3.47,4.74-.06,2.19-1.28,3.81-3.41,4.41-1.29,.36-2.7,.43-4.05,.43-19.05,0-38.09-.02-57.14-.03-.5,0-1,0-1.49-.02-4.06-.2-6.54-2.21-6.47-5.25,.07-2.92,2.4-4.73,6.41-4.75,10.08-.05,20.17-.02,30.25-.02v.04Z"/>
      <path class="d" d="M221.64,279.05c7.47,0,14.94-.03,22.41,.01,4.03,.02,6.35,1.8,6.4,4.73,.05,2.92-2.32,5.13-6.14,5.15-15.06,.06-30.12,.01-45.19-.08-2.23-.01-4.53-.33-5.87-2.59-2.05-3.47,.33-7.16,4.86-7.21,7.84-.1,15.68-.03,23.53-.03v.02Z"/>
      <path class="d" d="M343.39,317.69c-6.72,0-13.45-.04-20.17,.01-3.25,.03-5.73-.97-6.17-4.53-.36-2.9,1.99-5.22,5.92-5.27,13.82-.15,27.64-.15,41.45,0,3.99,.04,6.14,2.25,5.99,5.21-.15,2.98-2.32,4.55-6.49,4.57-6.85,.03-13.7,0-20.54,0Z"/>
      <path class="d" d="M270.96,279.09c.87,0,1.74-.04,2.61,0,3.05,.16,5.02,1.77,5.14,4.81,.11,2.92-1.84,4.56-4.59,4.95-1.83,.26-3.73,.25-5.57,.05-2.91-.31-5.02-1.82-4.91-5.01,.11-3.36,2.32-4.71,5.47-4.82,.62-.02,1.24,0,1.86,0v.02Z"/>
      <path class="d" d="M79.2,82.58c-2.5-.27-4.27-1.77-4.48-4.67-.19-2.71,2.24-4.97,5.02-4.79,2.94,.2,4.55,1.9,4.63,4.8,.07,2.58-2.25,4.69-5.17,4.66Z"/>
      <path class="d" d="M298.91,188.14c-2.42-.27-4.18-1.95-4.1-4.79,.07-2.82,1.81-4.6,4.8-4.58,2.94,.02,4.63,1.69,4.82,4.58,.18,2.7-2.26,4.91-5.52,4.8Z"/>
    </g>
  </g>
</svg>