<?xml version="1.0" encoding="UTF-8"?>
<svg id="b" data-name="Layer 2" xmlns="http://www.w3.org/2000/svg" viewBox="0 0 384.08 384.12">
  <defs>
    <style>
      .d {
        fill: #fff;
      }
    </style>
  </defs>
  <g id="c" data-name="Layer 1">
    <g>
      <path class="d" d="M96.13,.51c3.63,2.1,4.82,5.24,4.81,9.39-.11,29.81,.06,59.61-.1,89.42-.1,18-8.43,31.46-23.9,40.4-2.95,1.7-3.82,3.51-3.82,6.75,.09,71.34,.07,142.67,.06,214.01,0,10.16-5.3,18.41-13.98,21.9-15.24,6.13-31.42-4.7-31.43-21.19-.04-70.96-.02-141.93-.02-212.89,0-1.12-.1-2.26,.02-3.37,.25-2.31-.78-3.53-2.8-4.66C8.53,131.1,.06,117.13,.06,98.19,.05,68.76,.11,39.33,0,9.89-.01,5.75,1.18,2.6,4.81,.51h5.99c3.62,2.09,4.83,5.24,4.81,9.38-.12,23.55-.1,47.09-.03,70.64,.03,9.35-1.37,7.75,8.13,8.12,3.73,.15,4.91-.89,4.88-4.76-.17-24.67-.03-49.34-.14-74-.02-4.14,1.19-7.29,4.81-9.38h5.99c3.62,2.09,4.83,5.24,4.81,9.38-.12,23.55-.1,47.09-.03,70.64,.03,9.35-1.37,7.75,8.13,8.12,3.73,.15,4.91-.89,4.88-4.76-.17-24.67-.03-49.34-.14-74-.02-4.14,1.19-7.29,4.81-9.38h5.99c3.62,2.09,4.83,5.24,4.81,9.38-.12,23.55-.1,47.09-.03,70.64,.03,9.35-1.37,7.75,8.13,8.12,3.73,.15,4.91-.89,4.88-4.76-.17-24.67-.03-49.34-.14-74-.02-4.14,1.19-7.29,4.81-9.38h5.99ZM43.25,248.03c0,36.54,0,73.09,0,109.63,0,1.99-.04,3.98,.68,5.91,1.13,3.07,3.47,4.7,6.54,4.7,3.07,0,5.41-1.63,6.55-4.7,.81-2.18,.68-4.42,.68-6.66,0-72.71,0-145.42,0-218.13,0-7.08,.99-8.42,7.68-10.98,9.49-3.64,15.58-10.43,18.63-20.09,.77-2.42,.61-3.7-2.47-3.68-20.7,.08-41.41,.08-62.11,0-3.08-.01-3.24,1.25-2.47,3.68,3.04,9.66,9.16,16.44,18.63,20.08,6.7,2.58,7.68,3.88,7.68,10.98,0,36.42,0,72.84,0,109.25Z"/>
      <path class="d" d="M383.57,366.54c-2.54,7.61-7.03,13.46-14.82,16.22-14.83,5.25-30.29-5.51-30.32-21.25-.08-35.18-.07-70.36,.03-105.53,0-3.26-.89-5.63-3.25-7.88-4.43-4.2-8.77-8.53-12.81-13.11-6.33-7.19-9.49-15.66-9.47-25.34,.05-33.68-.34-67.37,.13-101.04,.45-32.74,12.36-61.25,34.02-85.71,7.65-8.64,16.36-16.07,26.01-22.4,3.49,0,8.35-1.36,10.1,.38,1.75,1.75,.38,6.6,.38,10.1V366.54Zm-15.23-342.05c-.92,.51-1.16,.6-1.34,.76-.83,.75-1.66,1.51-2.46,2.29-24.06,23.59-35.71,52.49-36.03,85.94-.29,31.31-.08,62.62-.05,93.94,0,7.69,2.39,14.39,8.17,19.78,4.38,4.08,8.39,8.56,12.77,12.63,3.24,3.01,4.6,6.38,4.58,10.89-.14,35.43-.08,70.86-.08,106.29,0,1.37-.07,2.76,.09,4.11,.5,4.32,3.53,7.3,7.23,7.23,3.59-.07,6.47-2.91,7-7.05,.19-1.48,.12-2.99,.12-4.48,0-109.28,0-218.56,0-327.84,0-1.33,0-2.67,0-4.48Z"/>
      <path class="d" d="M191.79,298.68c-58.31,.52-106.61-48.33-106.53-106.71,.08-58.25,48.4-106.57,106.85-106.53,58.16,.04,106.82,48.44,106.53,107.22-.28,58.19-48.65,106.75-106.84,106.02Zm.25-15.51c51.23-.89,90.91-40.89,90.77-91.23-.15-50.83-40.27-90.64-90.76-90.69-50.62-.05-90.96,39.92-90.96,90.86,0,50.94,40.33,90.3,90.95,91.05Z"/>
      <path class="d" d="M199.1,335.41c-33.58,.2-57.96-6.74-80.59-20.06-1.29-.76-2.58-1.53-3.79-2.4-3.91-2.83-4.99-7.11-2.78-10.78,2.29-3.8,6.82-4.99,11.06-2.45,8.91,5.33,18.1,9.99,27.96,13.3,50.72,17.04,104.65,1.58,139.79-40.08,.4-.48,.77-.98,1.19-1.44,3.33-3.66,7.9-4.24,11.32-1.43,3.32,2.73,3.82,7.62,.85,11.41-6.57,8.36-14.02,15.88-22.34,22.52-26.08,20.83-56.58,31.46-82.67,31.42Z"/>
      <path class="d" d="M192.06,48.8c40.05,.45,74.27,14.81,102.57,43.24,2.29,2.3,4.1,4.76,3.34,8.24-1.4,6.47-8.62,8.5-13.64,3.65-5.56-5.38-11.21-10.64-17.5-15.18-19.69-14.22-41.62-22.09-65.89-23.85-22.82-1.65-44.36,2.74-64.95,12.43-2.14,1.01-4.23,2.28-6.74,1.68-3.29-.78-5.65-2.62-6.32-6.1-.74-3.88,.78-6.96,4.58-8.91,10.7-5.49,21.95-9.49,33.71-12.04,10.15-2.2,20.39-3.47,30.84-3.16Z"/>
      <path class="d" d="M96.02,280.23c4.35-.05,8.18,3.61,8.29,7.91,.1,4.02-3.7,7.96-7.77,8.04-4.23,.08-8.06-3.71-8.14-8.06-.08-4.46,3.18-7.84,7.61-7.89Z"/>
      <path class="d" d="M122.84,189.97c.36-26.02,18.14-51.88,41.4-61.22,4.59-1.84,8.8-.37,10.72,3.75,1.9,4.08,.15,8.46-4.61,10.69-13.91,6.51-23.55,16.87-28.85,31.29-2,5.45-2.42,11.16-3.03,16.86-.64,5.94-3.5,8.73-8.31,8.5-4.73-.22-7.32-3.55-7.31-9.4,0-.5,0-1,0-.47Z"/>
      <path class="d" d="M191.82,123.04c4.5,0,7.82,3.26,7.84,7.71,.02,4.47-3.2,7.69-7.77,7.75-4.49,.06-8.09-3.22-8.18-7.46-.1-4.38,3.56-7.99,8.11-8Z"/>
    </g>
  </g>
</svg>