<?xml version="1.0" encoding="UTF-8"?>
<svg id="b" data-name="Layer 2" xmlns="http://www.w3.org/2000/svg" viewBox="0 0 490.62 445.09">
  <defs>
    <style>
      .d {
        fill: #fff;
      }
    </style>
  </defs>
  <g id="c" data-name="Layer 1">
    <path class="d" d="M490.62,252.31c-5.69,3.3-11.83,5.65-17.96,7.83-13,4.62-24.19,11.8-34.35,21.11-10.82,9.91-22.35,19.06-33.48,28.64-3.8,3.27-7.94,5.73-12.67,7.46-34.33,12.54-68.56,25.35-102.95,37.72-9.61,3.46-18,8.88-26.6,14.04-27.09,16.29-54.23,32.5-81.1,49.15-7.16,4.44-14.57,6.68-22.79,7.68-40.52,4.91-81.01,10.07-121.51,15.15-10.28,1.29-20.58,2.52-30.85,3.9-3.33,.45-4.99-.55-5.5-4.07-1.75-11.99-1.86-12.2,10.34-13.79,32.41-4.21,64.85-8.21,97.28-12.28,18.04-2.26,36.09-4.37,54.1-6.82,6.86-.93,12.08-5.67,17.59-9.36,2.15-1.44-.85-2.34-1.95-2.92-10.2-5.29-20.49-10.42-30.68-15.75-9.26-4.84-10.34-9.97-3.27-17.64,21.46-23.31,36.61-51.06,54.45-76.91,1.5-2.18,1.55-4.32,.67-6.79-5.48-15.33-10.88-30.69-16.25-46.05-.7-2.02-1.8-3.72-3.18-5.29-6.91-7.88-9.09-17.08-7.19-27.21,.64-3.39-.34-4.61-3.64-5.05-18.65-2.49-37.28-5.11-55.91-7.72-13.98-1.96-20.01-10.42-17.3-24.16,2.16-10.95,4.34-21.9,6.46-32.87,2.66-13.75,10.83-19.2,24.51-16.29q6.68,1.42,7.86-5.3c2.55-14.45,5.02-28.91,7.68-43.34,2.74-14.85,11.62-21.23,26.69-19.19,10.9,1.48,21.77,3.17,32.66,4.81,3.32,.5,6.45,1.55,8.97,3.77,1.24-1.33,.88-2.51,.68-3.52C206.39,25.56,228.31-1.56,257.49,.07c10.75,.6,20.23,4.44,27.95,12.01,2.43,2.39,4.34,2.9,7.45,1.23,7.59-4.07,15.35-7.84,23.11-11.6,5.77-2.8,10.38-1.63,12.79,3,2.41,4.63,.67,9.13-5.02,12.11-7.5,3.92-15.06,7.71-22.71,11.34-2.66,1.26-3.47,2.72-2.66,5.58,6.43,22.56-7.67,49.3-34.93,54.58-3.2,.62-4.01,1.27-2.51,4.46,2.71,5.75,3.35,11.96,2.61,18.26-.24,2.09,.09,3.61,1.8,5.03,6.01,5.01,11.97,10.08,17.8,15.3,2.05,1.83,3.77,1.69,6.01,.55,18.08-9.18,36.18-18.3,54.31-27.36,2.51-1.25,3.83-2.94,4.37-5.75,1.33-6.89,2.92-13.73,4.54-20.56,1.44-6.11,5.51-9.16,10.43-8.05,4.79,1.08,7.28,5.27,6.23,11.26-.96,5.49-2.29,10.93-3.57,16.36-.59,2.5-.01,3.96,2.36,5.42,12.89,7.93,13.37,25.2,1.09,34.06-1.55,1.12-3.13,2.4-4.9,2.95-7.07,2.23-9.71,7.15-11.16,14.26-5.82,28.6-12.21,57.09-18.59,85.58-1.07,4.77-.93,8.72,1.93,13.01,5.32,7.96,10.03,16.32,14.87,24.58,2.45,4.18,5.05,5.96,10.43,4.18,11.86-3.92,23.34,.54,29.3,11,2.2,3.86,3.66,3.63,6.67,1.03,14.02-12.1,28.23-23.97,42.28-36.05,3.69-3.17,7.7-5.6,12.18-7.43,9.6-3.92,19.2-7.88,28.7-12.05,3.09-1.36,4.67-.75,5.82,2.35,1.22,3.29,2.76,6.45,4.16,9.67v1.92Zm-233.64-9.23c-8.37-.41-9.11-1.71-7.75,6.03,1.79,10.2,3.13,20.48,4.75,30.71,.76,4.8-.16,8.92-3.04,13.04-13.77,19.77-27.22,39.76-40.94,59.57-2.03,2.93-2.08,4.33,1.34,6.07,4.16,2.12,7.73,5.47,9.82,9.57,2.17,4.26,3.97,3.83,7.58,1.74,21.18-12.29,40.79-27.59,64.88-34.4,2.37-.67,2.93-2.55,3.39-4.71,2.48-11.7,4.95-23.4,7.69-35.03,.73-3.11,.12-5.48-1.52-8.05-8.21-12.93-16.35-25.91-24.38-38.95-1.57-2.55-3.38-3.87-6.44-4.07-5.88-.38-11.73-1.14-15.39-1.51Zm-86.75-65c8,.77,7.96,.76,8.72-3.67,5.68-33.48,10.59-67.1,17.15-100.43,1.25-6.36,1.16-6.33-5.46-7.27-7.89-1.12-15.77-2.32-23.65-3.52-5.34-.82-6.84,.1-7.84,5.55-3.15,17.25-6.2,34.53-9.26,51.8-2.78,15.7-5.51,31.41-8.3,47.11-1.06,5.99-1.01,6.26,4.76,7.12,8.83,1.32,17.68,2.47,23.88,3.32Zm140.48,89.39c1-4.35,1.49-7.5,2.46-10.49,1.56-4.79,.61-8.83-2.11-13.06-5.69-8.85-11.05-17.93-16.27-27.07-1.96-3.43-4.38-5.47-8.26-6.46-8.65-2.2-17.17-4.92-25.78-7.26-7.53-2.04-14.84-5.56-22.62-5.88-14.34-.59-28.72-.13-43.08-.23-2.76-.02-3.97,1.26-4.77,3.67-3.65,10.96,2.71,19.63,14.87,20.66,24.29,2.07,48.55,4.54,72.85,6.45,6.14,.48,9.94,3.12,12.99,8.17,6.17,10.23,12.66,20.26,19.73,31.49Zm8.44-43.05c1.66-1.06,1.53-2.11,1.73-3.01,4.53-20.55,9.04-41.1,13.55-61.66,.27-1.21,1.25-2.67,.26-3.63-1.34-1.3-2.66,.27-3.83,.84-12.01,5.94-24.08,11.79-35.95,18.01-10.15,5.32-19.25,4.37-27.77-3.26-3.21-2.88-6.57-5.58-9.84-8.37-1.72-1.47-2.72-1.35-3.1,1.13-.68,4.41-1.21,8.88-2.37,13.17-1.07,3.95,.37,5.4,3.99,6.39,13.23,3.63,26.34,7.67,39.6,11.17,5.34,1.41,8.99,4.19,11.65,8.99,3.77,6.81,7.96,13.37,12.08,20.23Zm-82.57,55.7c-1.68-11.34-3.36-22.68-5.05-34.02-.09-.63-.3-1.24-.38-1.87-.42-3.29-2.75-3.87-5.51-4.06-5.72-.39-11.44-.79-17.14-1.39-5.24-.55-5.25-.66-3.43,4.54,2.69,7.67,5.54,15.29,8.11,23,7.27,21.82,8.42,15.16-4.24,34.69-8.5,13.11-17.05,26.2-25.83,39.12-2.22,3.26-1.86,4.98,1.6,6.44,.87,.37,1.69,.92,2.45,1.49,2.57,1.95,4.3,1.53,6.19-1.25,13.67-20.21,27.48-40.32,41.27-60.44,1.3-1.9,2.31-3.83,1.97-6.23Zm46.22-119.1c2.03,.1,3.67-.96,5.38-1.81,22.42-11.21,44.85-22.39,67.22-33.68,2.49-1.25,6.76-2.28,4.76-6.21-1.98-3.87-5.33-1.19-7.91,.1-21.01,10.46-42.06,20.84-62.9,31.63-4.61,2.38-7.54,1.9-11.31-1.42-16.06-14.13-32.36-27.99-48.6-41.92-1.92-1.65-4.04-3.92-6.44-.89-2.05,2.59-.06,4.4,1.83,6.02,17.78,15.32,35.56,30.63,53.35,45.94,1.34,1.15,2.7,2.29,4.62,2.24Zm-68.06,19.14c5.1,0,10.2-.1,15.3,.04,2.89,.07,4.29-.92,4.76-3.94,1.21-7.86,2.7-15.68,4.15-23.51,.52-2.79,0-4.13-3.15-2.85-10.54,4.27-21.46,7.08-32.77,8.3-2.99,.32-4.5,1.61-4.9,4.65-.57,4.41-1.45,8.79-2.2,13.18-.47,2.78,.46,4.22,3.51,4.15,5.1-.11,10.2-.03,15.3-.03ZM282.55,47.92c.06-10.07-.32-10.32-6.57-7.2-12.55,6.27-25.05,12.63-37.68,18.75-3.63,1.76-4.31,3.15-.9,5.83,8.92,7.01,18.66,8.91,29.09,4.23,10.42-4.67,15.66-13.09,16.05-21.61Zm-27.75-30.95c-2.5,.52-5.85,.93-9.01,1.94-9.19,2.95-17.49,13.82-17.53,22.48-.01,2.37,.31,3.95,3.18,2.52,12.68-6.33,25.35-12.66,38.03-18.98,3.03-1.51,1.74-2.7-.24-3.9-4.19-2.53-8.84-3.49-14.44-4.07Zm-83.42,341.57c-1.38-.2-1.99,.56-2.61,1.29-1.34,1.57-2.6,3.23-4.05,4.7-2.55,2.6-2.41,4.21,1.13,5.92,10.03,4.83,19.9,10,29.84,15,3.29,1.66,10.56-.15,12.02-3.53,1.67-3.87-1.99-5.92-4.21-8.15-1.16-1.17-3.01-2.19-4.62-2.29-9.44-.6-16.4-6.43-24.01-10.92-1.23-.73-2.47-1.43-3.5-2.02Zm205.59-54.9c.14-3.45-5.11-6.72-9.35-5.85-3.26,.67-6.43,1.86-9.6,2.93-4.15,1.4-7.92,1.09-10.94-2.35-1.79-2.05-3.37-2.35-5.7-.68-11.34,8.08-10.12,3.95-5.28,16.37,.23,.59,.5,1.18,.69,1.78,.71,2.25,1.97,2.97,4.33,2.08,11.06-4.15,22.16-8.18,33.24-12.27,1.17-.43,2.51-.76,2.6-2.02ZM130.08,134.66c-.26-4.01-3.98-2.96-6.42-3.74-2.15-.68-3.96-.63-4.52,2.42-2.03,10.98-4.25,21.92-6.44,32.87-.52,2.61,.54,4.43,3.07,4.16,2.75-.29,7.02,3.59,8.13-1.5,2.43-11.21,4.13-22.58,6.18-34.22Zm75.77-18.23c-1.28,8-2.37,14.86-3.49,21.71-.37,2.25,.54,2.85,2.67,2.47,5.49-.97,10.94-2.09,16.31-3.66,2.99-.88,3.28-1.82,.88-3.91-5.59-4.87-11.7-9.22-16.37-16.61Zm121.43,156.3c-1,4.35-2.01,8.58-2.91,12.84-.35,1.62,.11,2.42,2.03,1.69,6.5-2.47,7.51-5.22,3.85-11.13-.71-1.15-1.1-2.62-2.96-3.4Z"/>
  </g>
</svg>