<?xml version="1.0" encoding="UTF-8"?>
<svg id="b" data-name="Layer 2" xmlns="http://www.w3.org/2000/svg" viewBox="0 0 383.62 383.57">
  <defs>
    <style>
      .d {
        fill: #fff;
      }
    </style>
  </defs>
  <g id="c" data-name="Layer 1">
    <g>
      <path class="d" d="M0,187.88c3.07-8.02,5.7-16.21,10.12-23.68,14.21-24,35.29-37.15,62.94-39.39,24.36-1.97,46.83,3.65,66.3,18.96,7.22,5.68,12.75,12.82,14.21,22.18,2.3,14.74-8.18,27.16-24.12,28.67-2.84,.27-4.19,1.13-4.83,3.91-.46,2.02-1.17,4.45-2.63,5.69-5.08,4.31-4.53,9.91-4.19,15.46,.82,13.46,3.6,26.44,10.63,38.17,10.53,17.59,26.53,26.9,46.41,30.04,4.79,.76,9.65,1.06,14.5,1.45,4.82,.39,9.11-1.11,12.87-4.11,12.01-9.58,28.06-9.31,40.17-.15,7.98,6.03,13.32,6.01,21.43-.11,11.93-8.99,27.8-9.07,39.92,.08,8.02,6.06,13.33,6.04,21.43-.06,12-9.04,28.02-9.29,39.86,.11,3.32,2.64,7.09,3.99,11.33,4.37,4.44,.4,7.13,3.21,7.14,7.63,.07,26.19,.07,52.38,0,78.57-.01,4.75-3.02,7.58-7.76,7.81-.87,.04-1.75,.02-2.62,.02-120.98,0-241.96-.01-362.94,.05-4.32,0-7.9-.79-10.14-4.81V187.88Zm15.23,104.48c0,11.73-.02,23.45,.03,35.18,0,1.31-.72,3.11,.58,3.83,1.32,.72,2.48-.84,3.49-1.63,11.61-9.1,27.39-8.9,39.54,.32,7.63,5.8,13.12,5.94,20.79,.11,12.37-9.4,28.19-9.4,40.53,0,7.63,5.81,13.16,5.77,20.81-.09,11.99-9.18,27.96-9.6,40.14,.08,1.94,1.55,4.08,2.8,6.56,3.49,6.09,1.71,10.84-.96,15.61-4.23,12.98-8.91,25.3-8.77,38.22,.21,8.88,6.18,13.34,6.19,22.44,.03,13.51-9.13,25.28-9.1,38.86,.1,2.16,1.46,4.26,3.02,6.84,3.79,6.04,1.82,10.99-.51,15.64-4,6.34-4.76,13.38-6.91,21.35-6.49,6.94,.37,12.68,3.33,18.11,7.26,.77,.56,1.59,1.57,2.61,1.12,1.11-.5,.61-1.78,.62-2.71,.04-6.49-.21-12.99,.11-19.46,.19-3.74-.98-5.75-4.59-6.77-2.77-.78-5.02-2.72-7.39-4.34-8.6-5.85-13.57-6.2-21.81-.08-12.33,9.17-28.06,9.2-39.88-.1-1.95-1.54-4.06-2.88-6.52-3.57-5.22-1.47-9.86-.21-14.08,2.95-6.79,5.09-14.16,8.07-22.9,7.58-7.52-.41-13.51-3.89-19.39-8.01-5.8-4.07-12.13-4.71-17.74-.32-8.93,6.98-18.83,9.33-29.82,8.2-4.21-.43-8.45-.74-12.61-1.51-32.7-6.06-54.72-24.44-64.85-56.46-2.96-9.34-4.01-18.99-4.72-28.7-.09-1.23,.05-2.71-1.83-2.61-1.53,.08-3.4-.43-4.01,1.79-.2,.72-.43,1.44-.59,2.16-1.45,6.31-4.65,11.57-9.73,15.54-1.74,1.36-2.04,2.67-1.76,4.77,1.54,11.21,4.15,22.05,9.92,31.93,1.31,2.24,2,4.6,1.07,7.15-1.12,3.09-3.35,5.02-6.6,5.35-3.42,.35-5.99-1.23-7.77-4.16-5.52-9.06-9.43-18.87-10.64-29.33-.83-7.09-3.28-10.95-10.66-10.79-.24,0-.49-.09-.72-.18-1.71-.64-2.72,.04-3.66,1.54-2.83,4.56-6.69,8.06-11.53,10.36-1.97,.94-2.79,2.23-2.64,4.39,.38,5.36,1,10.66,2.52,15.84,2.91,9.94,8.45,18.24,15.48,25.71,3.43,3.65,3.35,8.33,.16,11.4-3.18,3.06-7.71,3.09-11.09-.24-13-12.82-20.74-28.24-22.41-46.5-.62-6.75-.48-6.62-6.96-8.7-2.79-.9-3.16,0-3.14,2.47,.08,12.1,.04,24.2,.03,36.3Zm176.16,75.65c56.74,0,113.48,0,170.23,0,1.12,0,2.25-.07,3.37,0,2.28,.16,3.09-.9,3.05-3.11-.09-4.36-.09-8.73,0-13.09,.04-1.81-.73-2.73-2.39-3.24-3.99-1.22-7.39-3.55-10.81-5.86-8.07-5.46-13.18-5.4-21.2,.25-13.35,9.41-25.53,9.48-39.14,.24-.72-.49-1.44-.99-2.16-1.47-6.06-4.06-12.14-4.12-18.12,.09-6.09,4.29-12.32,7.83-20.13,8.07-8.17,.25-15.03-2.51-21.52-7.17-7.67-5.51-12.85-5.37-20.56-.15-1.03,.7-2.05,1.43-3.11,2.08-11.49,7.15-23,7.27-34.49,.03-1.79-1.13-3.49-2.42-5.3-3.52-5.4-3.28-10.85-3.28-16.23,.03-2.23,1.37-4.28,3.03-6.55,4.33-10.8,6.18-22.14,6.78-32.12-.54-10.18-7.47-18.5-7.33-28.68,.05-10.12,7.33-22.16,7.4-32.3,.05-10-7.24-18.74-8.5-28.19-.12-10.23,2.21-10.7,9.6-9.89,18.02,.48,4.99,.1,5.03,5.27,5.03,56.99,0,113.98,0,170.98,0ZM49.32,147.73c8.35,1.03,15.47,3.46,21.99,7.55,4.77,2.99,6.21,7.22,3.83,11.33-2.37,4.09-6.9,5.04-11.68,2.35-2.94-1.65-5.93-3.17-9.19-4.13-8.43-2.48-16.45-1.24-24.4,2.17-6.44,2.77-7.83,8.97-10.53,14.34-.17,.33-.29,.69-.43,1.04q-1.7,4.23,2.92,3.69c8.53-.97,16.33,1.15,23.46,5.76,2.94,1.9,4.56,4.65,3.82,8.27-.69,3.37-2.88,5.43-6.22,6.26-2.52,.63-4.63-.46-6.7-1.66-5.59-3.22-11.44-3.91-17.66-2-2.38,.73-3.4,1.95-3.35,4.55,.15,7.48,.07,14.97,.04,22.45,0,1.68,.26,3.16,1.46,4.47,4.41,4.8,9.86,6.16,16.01,4.67,5.86-1.42,9.51-4.95,10.47-11.22,.98-6.39,6.02-8.84,11.93-6.06,2.83,1.33,5.65,2.67,8.72,3.31,10.92,2.26,18.14-4.83,15.87-15.54-1.8-8.51,2.41-12.65,11.01-10.81,3.3,.7,6.6,1.41,10,1.01,7.69-.9,10.25-4.4,8.7-11.98-.74-3.59-.88-6.99,2.3-9.59,3.14-2.56,6.45-2.11,9.82-.47,.67,.33,1.36,.63,2.08,.85,4.61,1.4,10.46-.26,12.94-3.65,2.46-3.36,2.13-7.51-1.1-12.13-2.45-3.51-5.52-6.46-9.07-8.83-17.62-11.78-37.02-15.49-57.82-12.37-6.5,.97-12.78,2.83-19.22,6.38Z"/>
      <path class="d" d="M264.23,0c15.05,3.57,25.58,12.32,29.75,27.42,3.94,14.28,.21,26.91-10.31,37.33-2.21,2.19-1.96,2.54,.64,4.14,9.92,6.1,20.19,7.98,31.67,5.27,7.54-1.78,14.92-.32,20.91,5.3,6.91,6.49,9.35,14.43,6.63,23.47-2.77,9.19-9.33,14.63-18.79,16.12-7.99,1.26-16.05,2.14-24.1,3.04-4.61,.52-9.22,.39-13.63-1.4-.64-.26-1.59-.79-1.99,.08-.51,1.11,.54,1.5,1.37,1.77,4.86,1.57,9.72,3.18,14.62,4.62,5.78,1.7,10.15,5.15,13.45,10.11,5.11,7.68,10.37,15.27,15.38,23.02,1.66,2.57,3.26,3.4,6.4,2.5,11.37-3.28,22.84-6.26,34.28-9.3,7.27-1.93,10.9,.35,12.36,7.62,3.84,19.07-7.58,38.07-26.75,43.46-24.71,6.95-49.56,13.42-74.36,20.07-13.36,3.59-26.72,7.18-40.11,10.67-2.39,.62-3.78,1.81-4.77,4.12-3.2,7.46-6.85,14.72-12.04,21.04-4.44,5.39-9.46,10.03-16.9,10.7-7.45,.67-12.97-2.72-17.26-8.5-2.09-2.82-3.7-5.93-4.84-9.25-.71-2.07-1.83-2.69-3.97-2.02-2.49,.79-5.06,1.36-7.61,1.91-12.07,2.62-23.86-4.45-27-16.14-3.23-12.06,3.25-24.07,15.28-27.81,6.54-2.03,13.2-3.72,19.85-5.36,2.73-.67,3.95-1.86,3.8-4.84-.54-10.45-.55-20.94-1.35-31.37-.87-11.32,1.96-20.61,11.72-27.33,4.92-3.38,9.37-7.45,14.09-11.13,1.71-1.34,2.54-2.83,2.37-5.1-.54-7.2-1.04-14.42-1.27-21.64-.09-2.74-1.04-4.07-3.71-4.6-15.79-3.12-29.59-11.08-43.63-18.34-10.99-5.69-15-19-9.64-29.93,5.43-11.07,18.49-15.8,29.91-10.69,5.01,2.24,10.06,4.46,14.79,7.21,7.19,4.18,15.08,5.67,23.51,7.08-.79-2.64-1.68-5.04-2.23-7.51-4.36-19.7,7.05-38.91,26.46-44.65C248.4,.8,249.58,.38,250.76,0c4.49,0,8.98,0,13.47,0Zm64.27,96.58c.07-4.51-3.42-7.63-8.09-7.15-2.6,.27-5.21,.55-7.77,1.07-9.79,1.98-19.05,1.68-27.96-3.93-4.56-2.87-9.59-5.42-14.99-6.63-15.32-3.45-30.6-7.11-46.02-10.05-13.69-2.62-26.93-6.15-39.01-13.33-2.24-1.33-4.66-2.4-7.11-3.33-3.28-1.24-6.73,.16-8.3,3.1-1.55,2.9-.85,6.75,1.75,8.81,1.06,.84,2.33,1.44,3.53,2.08,14.46,7.7,29.39,14.16,45.45,17.83,5.25,1.2,6.77,3.41,7.08,8.67,.5,8.46,1.08,16.92,1.37,25.38,.1,2.93,1.27,3.59,3.9,3.39,10.68-.81,21.37-1.57,32.07-2.18,3.04-.17,4.52-1.36,4.86-4.41,.34-3.09,.79-6.2,1.62-9.19,1.26-4.54,5.46-6.69,9.98-5.29,2.49,.78,4.93,1.77,7.33,2.81,4.19,1.81,8.35,2.75,13.04,1.93,6.62-1.16,13.35-1.61,20.02-2.51,4.81-.65,7.2-3.11,7.26-7.06ZM169.65,237.93c1.57,.11,3.36-.5,5.16-.99,39.11-10.47,78.23-20.94,117.33-31.43,19.97-5.36,39.96-10.68,59.9-16.18,7.69-2.12,12.47-7.46,14.92-14.96,.76-2.33,.42-3.79-2.56-2.82-.71,.23-1.45,.36-2.17,.56-55.84,14.96-111.67,29.91-167.51,44.87-9.03,2.42-18.07,4.75-27.06,7.31-4.05,1.15-5.77,4.32-5.07,8.37,.56,3.21,3.1,5.2,7.05,5.26ZM235.82,37.56c.05,12.12,9.86,22.03,21.77,21.99,11.98-.04,22.2-10.32,22.12-22.27-.08-11.83-10.09-21.83-22.01-21.99-11.99-.16-21.92,9.95-21.87,22.26Zm-4.99,137.66c.69,4.07,.59,8.19,.59,12.3,0,2.34,.72,3.2,3.11,2.45,2.85-.89,5.77-1.58,8.65-2.35,13-3.48,26-6.94,38.98-10.49,1-.27,3.41-.29,2.51-1.76-1.93-3.17-3.07-7.22-7.39-8.44-6.72-1.89-13.42-3.84-20.08-5.89-1.71-.53-3.14-.27-4.65,.47-6.38,3.12-12.76,6.25-19.19,9.27-1.98,.93-2.89,2.26-2.54,4.44Zm39.47-39.59c-14.78,1.02-29.56,1.95-44.32,3.12-4.11,.33-7.09,3.51-9.2,6.46-1.41,1.97,2.23,3.91,3.46,5.96,.77,1.27,1.96,2.28,2.75,3.54,1.34,2.13,2.82,2.22,5,1.12,6.56-3.31,13.31-6.27,19.82-9.67,3.81-1.99,7.47-2.29,11.5-1.01,5.7,1.8,11.46,3.42,17.21,5.04,1.2,.34,2.81,1.31,3.42-.76,1.07-3.65,4.33-7.91,2.55-10.8-1.73-2.8-6.72-3.18-10.69-2.99-.5,.02-1,0-1.5,0Zm-54.79,47.52c2.73-11.17-4.24-18.34-10.58-25.78-1.67-1.96-2.71-1.25-3.49,.65-.37,.9-.63,1.92-.61,2.88,.23,11.57,.54,23.15,.79,34.72,.04,1.9,.82,2.88,2.77,2.39,3.02-.75,6.01-1.61,9.01-2.43,1.78-.49,2.15-1.81,2.13-3.46-.05-2.99-.01-5.98-.01-8.97Zm87.42-11.52c3.72-1.02,7.46-1.99,11.16-3.08,1.62-.48,1.24-1.57,.53-2.63-4.59-6.82-9.17-13.66-13.8-20.46-1.16-1.71-2.13-1.8-3.11,.34-4.97,10.88-4.69,14.06,2.34,23.73,.29,.4,.58,.81,.88,1.2,.5,.64,1.14,.95,1.99,.91Zm-86.82,70.61c-4.51,1.21-8.8,2.46-13.15,3.5-2.41,.57-2.72,1.79-1.67,3.75,.65,1.2,1.28,2.41,1.99,3.58,1.55,2.56,3.52,2.95,5.86,1.03,3.32-2.73,5.64-6.27,7.73-9.96,.55-.97,.79-1.97-.75-1.9Z"/>
    </g>
  </g>
</svg>